<svg width="96" height="28" viewBox="0 0 96 28" fill="none" xmlns="http://www.w3.org/2000/svg">
<g clip-path="url(#clip0_284_4273)">
<path d="M4.26869 3.72464L13.2152 22.4366L21.5187 3.72464H23.4116L12.6616 27.7931H11.6258L0.0722656 3.72464H4.26869ZM28.8294 9.77281L31.383 8.74407H32.4366V27.2432H28.8294V9.77281ZM28.5437 2.12836C28.5437 1.84457 28.5973 1.57853 28.7044 1.33021C28.8116 1.0819 28.9604 0.863156 29.1509 0.673963C29.3413 0.484774 29.5615 0.33697 29.8116 0.230552C30.0616 0.124132 30.3295 0.0709229 30.6152 0.0709229C30.9009 0.0709229 31.1687 0.124132 31.4187 0.230552C31.6687 0.33697 31.8889 0.484774 32.0794 0.673963C32.2699 0.863156 32.4187 1.0819 32.5259 1.33021C32.633 1.57853 32.6866 1.84457 32.6866 2.12836C32.6866 2.41214 32.633 2.67818 32.5259 2.9265C32.4187 3.17481 32.2699 3.39355 32.0794 3.58275C31.8889 3.77194 31.6687 3.91974 31.4187 4.02616C31.1687 4.13258 30.9009 4.18579 30.6152 4.18579C30.3295 4.18579 30.0616 4.13258 29.8116 4.02616C29.5615 3.91974 29.3413 3.77194 29.1509 3.58275C28.9604 3.39355 28.8116 3.17481 28.7044 2.9265C28.5973 2.67818 28.5437 2.41214 28.5437 2.12836ZM41.7473 9.08106L48.2116 22.8269L54.408 9.08106H56.0508L47.8187 27.4383H46.5687L37.9437 9.08106H41.7473ZM63.9687 8.74407H64.5223L65.0044 12.451C65.2901 11.9071 65.6472 11.4104 66.0758 10.9611C66.5044 10.5118 66.9746 10.1216 67.4866 9.79052C68.0104 9.45944 68.558 9.20524 69.1294 9.02786C69.7128 8.83867 70.302 8.74407 70.8973 8.74407C71.433 8.74407 71.9568 8.81498 72.4687 8.95687C72.9925 9.09877 73.4806 9.32345 73.933 9.63092L72.7901 12.6638C72.552 12.4037 72.302 12.1968 72.0402 12.0431C71.7782 11.8775 71.5103 11.7533 71.2366 11.6706C70.9628 11.576 70.683 11.5169 70.3973 11.4932C70.1115 11.4695 69.8258 11.4577 69.5401 11.4577C69.0878 11.4577 68.6413 11.5228 68.2008 11.6528C67.7723 11.7829 67.3615 11.978 66.9687 12.2382C66.5759 12.4865 66.2127 12.8116 65.8794 13.2136C65.5461 13.6039 65.2544 14.065 65.0044 14.5971V27.2432H61.3794V9.73732L63.9687 8.74407ZM86.7612 27.6334C85.5231 27.6334 84.3567 27.4028 83.2618 26.9417C82.1784 26.4806 81.2321 25.8539 80.4222 25.0616C79.613 24.2694 78.97 23.3412 78.4938 22.277C78.029 21.201 77.7974 20.0599 77.7974 18.8539C77.7974 17.3995 78.0115 16.0574 78.4405 14.8277C78.8687 13.5861 79.4759 12.5161 80.2614 11.6174C81.0469 10.7188 81.9879 10.0152 83.0827 9.50673C84.1898 8.99827 85.4226 8.74407 86.7795 8.74407C87.9696 8.74407 89.0652 8.95687 90.0648 9.38255C91.0652 9.79642 91.9224 10.3581 92.6363 11.0675C93.3624 11.7652 93.9224 12.5752 94.3148 13.4974C94.7201 14.4197 94.922 15.3834 94.922 16.3885H81.2976C81.2976 17.6064 81.4523 18.7356 81.7616 19.7761C82.0831 20.8167 82.5296 21.7153 83.101 22.4721C83.6725 23.2288 84.3506 23.8201 85.1368 24.2458C85.9224 24.6715 86.7856 24.8843 87.7258 24.8843C88.5113 24.8843 89.2671 24.7601 89.994 24.5118C90.7201 24.2517 91.3746 23.9147 91.9582 23.5008C92.5532 23.087 93.0591 22.614 93.4759 22.0819C93.8927 21.5498 94.1845 21 94.3506 20.4324L95.4043 20.8936C95.1422 21.8277 94.7201 22.7027 94.1365 23.5185C93.5528 24.3344 92.8687 25.0498 92.0831 25.6647C91.309 26.2677 90.4641 26.7466 89.5475 27.1013C88.6309 27.456 87.7022 27.6334 86.7612 27.6334ZM90.3689 14.9341C90.3689 14.2483 90.2439 13.6098 89.994 13.0185C89.7555 12.4274 89.4226 11.9189 88.9936 11.4932C88.5654 11.0557 88.0648 10.7128 87.4934 10.4645C86.922 10.2162 86.3094 10.092 85.6542 10.092C85.1071 10.092 84.5829 10.2162 84.0831 10.4645C83.5833 10.701 83.1368 11.038 82.7437 11.4755C82.3506 11.9012 82.0237 12.4096 81.7616 13.0008C81.5117 13.592 81.3624 14.2306 81.3151 14.9163L90.3689 14.9341Z" fill="#343A40"/>
</g>
<defs>
<clipPath id="clip0_284_4273">
<rect width="96" height="28" fill="white"/>
</clipPath>
</defs>
</svg>
